<svg width="24" height="22" viewBox="0 0 24 22" fill="none" xmlns="http://www.w3.org/2000/svg">
<path d="M19 0H5C3.67392 0 2.40215 0.526784 1.46447 1.46447C0.526784 2.40215 0 3.67392 0 5V17C0 17.6566 0.129329 18.3068 0.380602 18.9134C0.631876 19.52 1.00017 20.0712 1.46447 20.5355C2.40215 21.4732 3.67392 22 5 22H19C19.6566 22 20.3068 21.8707 20.9134 21.6194C21.52 21.3681 22.0712 20.9998 22.5355 20.5355C22.9998 20.0712 23.3681 19.52 23.6194 18.9134C23.8707 18.3068 24 17.6566 24 17V5C24 4.34339 23.8707 3.69321 23.6194 3.08658C23.3681 2.47995 22.9998 1.92876 22.5355 1.46447C22.0712 1.00017 21.52 0.631876 20.9134 0.380602C20.3068 0.129329 19.6566 0 19 0ZM5 2H19C19.5991 2.00142 20.1841 2.1822 20.6796 2.51905C21.1751 2.8559 21.5583 3.33339 21.78 3.89L14.12 11.55C13.5575 12.1118 12.795 12.4274 12 12.4274C11.205 12.4274 10.4425 12.1118 9.88 11.55L2.22 3.89C2.44168 3.33339 2.82494 2.8559 3.32041 2.51905C3.81588 2.1822 4.40087 2.00142 5 2ZM19 20H5C4.20435 20 3.44129 19.6839 2.87868 19.1213C2.31607 18.5587 2 17.7956 2 17V6.5L8.46 12.96C8.92446 13.4256 9.47621 13.7951 10.0837 14.0471C10.6911 14.2992 11.3423 14.4289 12 14.4289C12.6577 14.4289 13.3089 14.2992 13.9163 14.0471C14.5238 13.7951 15.0755 13.4256 15.54 12.96L22 6.5V17C22 17.7956 21.6839 18.5587 21.1213 19.1213C20.5587 19.6839 19.7956 20 19 20Z" fill="white"/>
</svg>
