<svg width="159" height="168" viewBox="0 0 159 168" fill="none" xmlns="http://www.w3.org/2000/svg">
<path fill-rule="evenodd" clip-rule="evenodd" d="M114.251 58.5903C85.8439 71.6723 48.2976 70.5211 45.6076 68.803C44.4685 68.0791 44.0654 67.3465 44.1968 66.2912C44.3546 64.9569 50.9 50.0869 53.257 44.9587C61.9842 25.9723 63.4388 10.4569 60.6086 0C57.9361 2.52048 55.0621 4.84037 51.8288 8.61673C56.3326 14.4688 56.3852 26.7659 50.8299 42.4295C48.0084 50.3573 45.6339 56.4622 42.4006 65.0702C41.4893 67.5035 42.4093 69.9716 47.2724 70.9397C61.0642 73.6782 89.5941 75.126 115.022 66.3697C114.812 63.6835 114.567 61.102 114.251 58.5903Z" fill="#FEFEFE"/>
<path fill-rule="evenodd" clip-rule="evenodd" d="M49.095 68.8379C59.9689 69.4222 86.9129 68.6983 113.427 54.0464C112.954 51.43 112.394 48.8659 111.701 46.328C89.1911 61.3637 66.2865 67.4163 48.5429 67.6867C63.0532 66.0819 87.2634 60.1514 110.343 41.8278C109.511 39.3422 108.529 36.8478 107.39 34.3099C88.0257 52.9126 65.9886 62.8812 48.1924 66.2825C62.5187 62.1486 86.0279 52.0143 105.27 29.9318C104.034 27.5421 102.632 25.1001 101.055 22.5709C85.5635 44.5837 65.2 58.442 47.7806 64.9394C61.5637 58.3024 83.6446 43.8947 98.1549 18.123C96.49 15.681 94.6587 13.1518 92.6346 10.518C78.8954 44.2959 52.5999 60.2299 46.9394 64.2068C43.5222 66.6139 44.5561 68.6024 49.095 68.8379Z" fill="#FEFEFE"/>
<path fill-rule="evenodd" clip-rule="evenodd" d="M4.91563 160.386C5.97586 160.386 6.47531 159.846 6.47531 158.72C6.47531 157.787 5.94081 157.255 4.91563 157.255H3.43481V160.386H4.91563ZM4.68781 165.837C5.99339 165.837 6.61551 165.323 6.61551 164.075C6.61551 162.863 6.01091 162.305 4.75791 162.305H3.43481V165.837H4.68781ZM0.911276 155.328H5.34498C7.79841 155.328 9.01637 156.296 9.01637 158.363C9.01637 160.055 8.20148 161.18 6.93095 161.302C8.3592 161.546 9.20914 162.636 9.20914 164.285C9.20914 166.779 7.99118 167.799 5.41508 167.799H0.911276V155.328ZM18.4796 155.328H21.1258V165.602H24.9549V167.799H18.4796V155.328ZM41.2703 158.529C41.2703 160.351 40.8234 161.285 39.4477 161.633C41.1476 161.982 41.3754 162.741 41.3754 164.59C41.3754 164.799 41.3579 165.009 41.3579 165.218C41.3579 166.186 41.428 167.032 41.6908 167.799H38.957C38.7292 167.014 38.7818 165.855 38.7467 164.354C38.7117 163.16 38.3699 162.654 37.3272 162.654H36.2232V167.799H33.6033V155.328H37.3272C40.1925 155.328 41.2703 155.956 41.2703 158.529ZM36.8716 160.718C38.2122 160.718 38.7467 160.299 38.7467 158.93C38.7467 157.595 38.2998 157.264 36.9242 157.264H36.2232V160.718H36.8716ZM52.67 157.369H49.8135V155.328H58.234V157.369H55.36V167.799H52.67V157.369ZM86.5711 167.573C85.2042 167.817 83.9688 167.991 82.8559 167.991C81.3576 167.991 80.2974 167.73 79.6139 167.137C78.3609 166.046 78.1857 164.197 78.1857 161.267C78.1857 159.209 78.3259 157.7 79.0619 156.61C79.7015 155.659 80.8669 155.171 82.5756 155.171C85.1867 155.171 86.5711 156.488 86.5711 158.982V159.174H84.0038V159.017C84.0038 157.613 83.5131 156.941 82.5055 156.941C80.9721 156.941 80.8143 158.345 80.8143 161.529C80.8143 164.764 80.9195 166.169 82.891 166.169C83.2678 166.169 83.6884 166.099 84.1878 165.977V163.186H82.7508V161.232H86.5711V167.573ZM103.623 158.529C103.623 160.351 103.176 161.285 101.8 161.633C103.5 161.982 103.728 162.741 103.728 164.59C103.728 164.799 103.71 165.009 103.71 165.218C103.71 166.186 103.78 167.032 104.043 167.799H101.309C101.081 167.014 101.134 165.855 101.099 164.354C101.064 163.16 100.722 162.654 99.6795 162.654H98.5842V167.799H95.9555V155.328H99.6795C102.545 155.328 103.623 155.956 103.623 158.529ZM99.2239 160.718C100.564 160.718 101.099 160.299 101.099 158.93C101.099 157.595 100.652 157.264 99.2764 157.264H98.5842V160.718H99.2239ZM121.559 163.142C121.559 166.5 120.446 168 117.3 168C114.356 168 113.033 166.552 113.033 163.5V155.328H115.644V162.828C115.644 165.043 115.732 166.116 117.335 166.116C118.799 166.116 118.983 165.043 118.983 162.828V155.328H121.559V163.142ZM139.224 159.069C139.224 160.404 138.891 161.407 138.33 161.982C137.568 162.776 136.647 162.793 135.482 162.793H133.826V167.799H131.092V155.328H135.307C138.12 155.328 139.224 156.156 139.224 159.069ZM133.791 160.787H134.658C136.052 160.787 136.56 160.491 136.56 159C136.56 157.63 136.104 157.281 134.886 157.281H133.791V160.787ZM156.205 159.069C156.205 160.404 155.872 161.407 155.311 161.982C154.549 162.776 153.629 162.793 152.463 162.793H150.807V167.799H148.073V155.328H152.288C155.101 155.328 156.205 156.156 156.205 159.069ZM150.772 160.787H151.64C153.033 160.787 153.541 160.491 153.541 159C153.541 157.63 153.085 157.281 151.868 157.281H150.772V160.787Z" fill="#FEFEFE"/>
<path d="M21.9933 121.437H29.9757L33.5595 133.167C33.6997 133.638 33.8048 134.152 33.8924 134.737C33.9888 135.321 34.0501 135.949 34.094 136.612C34.1553 135.888 34.2429 135.225 34.3393 134.615C34.4445 134.004 34.5584 133.489 34.6898 133.053L38.2736 121.437H46.1245V140.955H41.2177V127.847C41.2177 127.228 41.2352 126.582 41.2703 125.911C41.3053 125.248 41.3579 124.533 41.4367 123.774C41.3053 124.358 41.1739 124.916 41.0337 125.457C40.9022 125.989 40.7533 126.495 40.5956 126.975L36.1794 140.955H31.4916L27.1718 127.201C27.0228 126.73 26.8739 126.198 26.7424 125.623C26.6022 125.038 26.4708 124.419 26.3569 123.774C26.4182 124.698 26.4708 125.527 26.5146 126.268C26.5584 127.001 26.5759 127.559 26.5759 127.934V140.955H21.9933V121.437ZM58.7773 125.789L56.245 133.114H61.2394L58.7773 125.789ZM55.728 121.437H62.0368L69.4585 140.955H63.8769L62.4749 136.821H54.9306L53.4673 140.955H48.2888L55.728 121.437ZM76.5208 124.873V129.87H78.3609C79.4912 129.87 80.3324 129.67 80.902 129.26C81.4627 128.85 81.7519 128.239 81.7519 127.428C81.7519 126.547 81.4365 125.902 80.8056 125.483C80.1747 125.073 79.1758 124.873 77.8176 124.873H76.5208ZM71.4037 121.437H79.1933C81.7957 121.437 83.7147 121.855 84.9677 122.692C86.2294 123.53 86.8515 124.812 86.8515 126.521C86.8515 127.786 86.5273 128.824 85.8614 129.635C85.1955 130.454 84.2404 130.995 82.9961 131.274C84.0213 131.649 84.845 132.713 85.4759 134.466V134.484L87.8242 140.955H82.374L80.6479 135.609C80.3675 134.754 79.9907 134.152 79.5175 133.821C79.0356 133.498 78.2908 133.333 77.2831 133.333H76.5208V140.955H71.4037V121.437ZM90.7595 121.437H95.9818V140.955H90.7595V121.437ZM100.556 121.437H107.084L112.762 133.141C112.954 133.533 113.182 134.083 113.436 134.78C113.699 135.487 113.979 136.341 114.295 137.353C114.128 136.394 114.006 135.513 113.927 134.702C113.848 133.899 113.813 133.158 113.813 132.495V121.437H118.527V140.955H112.034L106.129 128.824C105.848 128.265 105.594 127.664 105.366 127.009C105.138 126.347 104.928 125.64 104.735 124.873C104.919 126.033 105.051 127.097 105.138 128.074C105.226 129.05 105.27 129.914 105.27 130.655V140.955H100.556V121.437ZM123.066 121.437H136.691V125.091H128.297V129.033H136.218V132.739H128.297V137.187H137.007V140.955H123.066V121.437Z" fill="#FEFEFE"/>
<path d="M0 92.2374H7.97366L11.5574 103.968C11.7064 104.43 11.8115 104.953 11.8992 105.537C11.9868 106.113 12.0569 106.741 12.1007 107.413C12.162 106.689 12.2496 106.026 12.346 105.415C12.4512 104.805 12.5651 104.282 12.6878 103.854L16.2803 92.2374H24.1313V111.756H19.2156V98.6476C19.2156 98.0284 19.2419 97.383 19.277 96.7114C19.312 96.0399 19.3646 95.3247 19.4435 94.566C19.312 95.159 19.1806 95.7172 19.0404 96.2492C18.9002 96.7899 18.7512 97.2957 18.5935 97.7754L14.1861 111.756H9.48953L5.16973 98.0022C5.02954 97.5312 4.88058 96.9992 4.74915 96.4149C4.60895 95.8393 4.47752 95.2201 4.35484 94.566C4.42494 95.4904 4.47752 96.3277 4.52133 97.0603C4.56514 97.8016 4.58266 98.3598 4.58266 98.7348V111.756H0V92.2374ZM36.784 96.5893L34.2429 103.907H39.2374L36.784 96.5893ZM33.7347 92.2374H40.0435L47.4652 111.756H41.8749L40.4816 107.613H32.9286L31.474 111.756H26.2955L33.7347 92.2374ZM54.5276 95.6648V100.671H56.3589C57.4892 100.671 58.3391 100.47 58.9087 100.06C59.4695 99.6505 59.7499 99.04 59.7499 98.2202C59.7499 97.3481 59.4344 96.694 58.8035 96.2841C58.1814 95.8742 57.1825 95.6648 55.8244 95.6648H54.5276ZM49.4016 92.2374H57.2C59.7937 92.2374 61.7214 92.656 62.9744 93.4932C64.2361 94.3305 64.8583 95.6038 64.8583 97.3132C64.8583 98.5865 64.5341 99.6156 63.8681 100.435C63.2022 101.247 62.2471 101.796 60.9941 102.066C62.0281 102.441 62.8517 103.514 63.4826 105.267V105.285L65.8221 111.756H60.372L58.6546 106.41C58.3742 105.546 57.9974 104.953 57.5242 104.622C57.0423 104.29 56.2975 104.125 55.2811 104.125H54.5276V111.756H49.4016V92.2374ZM68.7575 92.2374H73.9885V100.671L80.0608 92.2374H85.914L78.7114 101.203L86.6588 111.756H80.1572L73.9885 102.703V111.756H68.7575V92.2374ZM88.8493 92.2374H102.475V95.8829H94.0804V99.8337H102.001V103.54H94.0804V107.988H102.79V111.756H88.8493V92.2374ZM105.357 92.2374H120.297V96.1358H115.443V111.756H110.212V96.1358H105.357V92.2374ZM123.311 92.2374H136.937V95.8829H128.542V99.8337H136.463V103.54H128.542V107.988H137.252V111.756H123.311V92.2374ZM140.179 92.2374H146.19L149.502 99.1185L152.665 92.2374H158.299L152.42 101.517L159 111.756H152.849L149.072 104.186L145.243 111.756H139.504L146.111 101.517L140.179 92.2374Z" fill="#FEFEFE"/>
</svg>
