<svg width="23" height="11" viewBox="0 0 23 11" fill="none" xmlns="http://www.w3.org/2000/svg">
<path d="M22.5449 2.17972L12.3496 10.7212C12.2282 10.8226 12.0967 10.8945 11.9551 10.9371C11.8135 10.9797 11.6618 11.0007 11.5 11C11.3382 11 11.1865 10.9787 11.0449 10.9361C10.9033 10.8935 10.7718 10.8219 10.6504 10.7212L0.424802 2.17972C0.1416 1.94316 -4.08812e-07 1.64746 -4.24323e-07 1.29262C-4.39833e-07 0.937787 0.151715 0.63364 0.455145 0.380184C0.758575 0.126728 1.11258 -4.86323e-08 1.51715 -6.63168e-08C1.92172 -8.40012e-08 2.27573 0.126728 2.57916 0.380184L5.08924 2.47687C8.80083 5.57717 14.1992 5.57716 17.9108 2.47687L20.4208 0.380183C20.704 0.143624 21.0532 0.0253449 21.4683 0.0253449C21.8834 0.0253448 22.2422 0.152073 22.5449 0.405528C22.8483 0.658984 23 0.954682 23 1.29262C23 1.63056 22.8483 1.92626 22.5449 2.17972Z" fill="white"/>
</svg>
