<svg width="616" height="616" viewBox="0 0 616 616" fill="none" xmlns="http://www.w3.org/2000/svg">
<path opacity="0.998077" d="M53.1763 27.5365L39.6432 27.7415L30.006 27.8646C21.8731 27.9936 15.4006 34.7001 15.5297 42.833L15.6937 53.0854C15.6932 53.1535 15.6937 53.2223 15.6937 53.2904L15.8988 65.0191C16.0278 73.1521 22.6933 79.6245 30.8262 79.4955L50.4697 79.2084L340.899 80.4387C289.206 104.466 241.198 136.698 199.088 174.842C198.038 173.786 179.244 154.967 177.558 153.271C167.498 143.201 151.157 143.179 141.101 153.271C131.033 163.356 131.033 179.685 141.101 189.77L162.508 211.259C88.0908 291.112 36.7342 393.755 19.6716 501.893C19.3029 504.235 18.8606 506.559 18.5234 508.905C18.4945 509.113 18.4305 509.313 18.4003 509.52L14.9145 532.732C13.656 541.111 19.0568 548.891 26.9713 550.079L49.3625 553.442C57.277 554.631 64.7141 548.781 65.9713 540.401L67.6117 529.451L71.0975 506.568C74.4688 486.024 78.905 466.809 85.6148 446.202H85.2457C107.666 372.511 146.703 304.148 199.006 247.798C199.006 247.798 268.533 317.237 269.501 317.965C221.933 370.303 188.728 431.32 175.877 502.754L172.063 521.044L170.217 530.394C168.787 538.746 175.338 547.854 183.299 549.218L203.804 553.113C211.766 554.478 220.088 550.392 221.52 542.041C221.52 542.041 222.044 539.877 222.709 537.161C223.211 535.115 225.687 523.583 225.99 522.11C256.247 375.53 351.039 278.869 487.425 247.347V463.713L452.772 429.019C427.629 405.757 393.095 440.349 416.315 465.558L538.974 588.464V186.448C452.816 194.856 368.861 227.356 305.918 282.492C305.088 281.328 235.627 211.464 235.627 211.464C313.7 140.857 413.735 95.4995 517.813 80.6847C592.696 71.4048 601.268 28.8488 601.268 28.8488C601.268 28.8488 81.7836 27.6395 55.2678 27.5365C55.1662 27.5361 53.263 27.5369 53.1763 27.5365Z" fill="white" stroke="white" stroke-width="0.13123" stroke-miterlimit="10" stroke-linecap="round" stroke-linejoin="round"/>
</svg>
