<svg width="270" height="133" viewBox="0 0 270 133" fill="none" xmlns="http://www.w3.org/2000/svg">
<path opacity="0.5" d="M219.894 0.162427C219.894 0.601352 220.71 2.79598 221.295 3.96645C222.111 5.55494 223.889 7.85407 225.039 8.81552C227.088 10.5085 229.661 11.6163 231.522 11.6163C232.547 11.6163 232.902 11.8671 235.538 14.417C237.253 16.0682 240.599 19.8096 240.599 20.0604C240.599 20.1231 240.369 20.1858 240.076 20.1858C239.679 20.1858 239.49 19.9977 239.177 19.287C238.11 16.967 235.14 15.3785 231.836 15.3785C230.393 15.3785 224.976 16.1518 224.495 16.4445C224.244 16.5908 224.537 16.967 225.875 18.242C228.699 20.9591 231.313 21.9833 234.973 21.8161C236.541 21.7534 237.19 21.628 238.173 21.1681C239.198 20.6874 239.595 20.6247 240.348 20.7292C241.226 20.8546 241.352 20.98 242.565 22.6312C245.053 26.0381 248.546 31.9532 248.253 32.2458C247.981 32.5175 247.082 31.8904 247.082 31.4306C247.082 30.5737 246.12 28.8807 245.158 27.9819C243.192 26.2053 240.954 25.5156 235.851 25.1812C233.948 25.0558 232.359 24.9931 232.317 25.0558C232.129 25.2439 233.99 27.7729 235.245 29.0479C238.277 32.0995 242.69 33.6043 246.078 32.7056C246.81 32.5175 247.166 32.5175 247.919 32.7683C248.86 33.0818 248.881 33.1236 250.01 35.6109C251.85 39.603 254.674 47.7754 254.339 48.1098C254.276 48.1725 254.025 48.1307 253.795 47.9844C253.44 47.7963 253.356 47.5663 253.356 46.6676C253.356 43.7832 251.62 41.1288 248.441 39.1641C246.977 38.2444 239.825 35.2973 239.616 35.5273C239.49 35.6527 240.18 37.5547 240.912 39.1014C243.401 44.264 247.981 47.9844 251.892 47.9844C252.771 47.9844 253.126 48.1098 253.858 48.6532C254.757 49.322 254.799 49.4057 255.218 51.4122C256.18 55.885 256.807 60.7968 256.974 64.977C257.037 66.7955 257.037 66.7955 256.64 66.3983C256.284 66.0639 256.242 65.6668 256.2 63.4304C256.159 61.1521 256.096 60.6714 255.615 59.5427C254.381 56.6375 252.373 54.3592 248.002 50.9523C246.476 49.7819 245.2 48.8204 245.158 48.8204C244.991 48.8204 245.2 50.8478 245.534 52.7916C246.58 58.644 250.596 64.2664 254.716 65.6877C255.427 65.9176 255.824 66.252 256.41 67.0672L257.183 68.1331L256.932 72.3343C256.807 74.6334 256.556 77.4551 256.389 78.6046C255.866 82.1578 255.406 84.5615 255.238 84.666C255.134 84.7287 254.967 84.4779 254.841 84.1434C254.674 83.6 254.695 83.3492 255.071 82.6386C255.699 81.4681 255.824 79.0227 255.364 76.9952C254.778 74.3826 253.544 72.2298 249.634 67.0463C247.605 64.3291 247.04 63.723 246.915 64.0156C246.831 64.2246 246.768 65.9803 246.768 67.945C246.789 72.5015 247.208 74.2572 249.215 78.2493C250.135 80.0468 252.206 82.5341 253.252 83.0984C253.649 83.3074 254.025 83.8508 254.423 84.7078L254.987 86.0037L254.59 87.613C253.942 90.2466 252.98 93.1937 252.018 95.5973C250.679 98.8997 249.006 102.327 248.755 102.327C248.4 102.327 248.525 101.157 248.922 100.802C249.445 100.321 250.198 98.7534 250.554 97.4575C251.516 93.7998 250.972 90.8736 247.877 83.0566C246.371 79.2735 246.496 79.2944 245.409 82.6595C243.443 88.6581 243.987 94.824 246.852 99.5476C247.438 100.53 247.94 101.638 248.065 102.307C248.274 103.31 248.232 103.498 247.772 104.376C247.249 105.337 244.154 109.977 243.464 110.792C243.276 111.022 242.857 111.545 242.523 111.963C241.603 113.175 239.072 115.913 238.905 115.913C238.821 115.913 238.779 115.746 238.821 115.537C238.863 115.349 238.905 115.035 238.905 114.868C238.926 114.68 239.239 114.367 239.637 114.158C240.536 113.677 242.146 111.545 242.69 110.103C243.234 108.681 243.589 105.567 243.422 103.582C243.255 101.387 242.439 93.8834 242.356 93.7789C242.314 93.7371 242.021 94.0088 241.707 94.385C237.462 99.4431 235.789 107.344 237.775 113.029C238.424 114.889 238.424 116.415 237.796 117.084C236.771 118.129 233.425 120.762 231.501 122.058C229.305 123.521 225.373 125.632 225.185 125.465C224.934 125.214 225.394 124.483 225.792 124.483C227.235 124.483 230.163 121.933 231.187 119.78C232.024 118.024 232.923 114.367 233.488 110.479C233.739 108.702 233.99 107.177 234.053 107.072C234.45 106.424 232.003 107.845 230.288 109.288C228.301 110.939 226.461 113.802 225.415 116.854C224.934 118.296 224.851 118.923 224.788 121.515C224.704 125.277 224.516 126.009 223.617 126.301C223.24 126.427 221.818 126.928 220.438 127.388C219.078 127.869 216.924 128.454 215.628 128.726C213.494 129.186 213.285 129.269 213.118 129.771C212.992 130.084 212.972 130.377 213.034 130.44C213.222 130.649 218.242 129.499 220.877 128.642C222.843 127.994 223.596 127.848 224.244 127.952C225.248 128.12 225.311 128.14 226.001 129.206C227.298 131.213 229.703 132.446 233.195 132.885C236.102 133.261 239.804 132.697 242.795 131.443C243.819 131.004 245.409 129.959 245.409 129.708C245.409 129.395 242.627 127.472 240.912 126.615C238.466 125.382 236.353 124.88 233.676 124.88C231.167 124.859 229.201 125.402 226.858 126.698C225.624 127.388 224.913 127.597 224.913 127.242C224.913 127.158 225.436 126.865 226.064 126.594C228.636 125.486 233.781 122.142 236.249 119.968C236.981 119.32 237.483 119.069 238.173 118.986C239.051 118.86 239.177 118.902 239.909 119.571C243.338 122.748 251.934 120.888 256.974 115.892C257.748 115.119 258.376 114.346 258.376 114.178C258.376 113.823 256.661 113.154 254.506 112.653C252.373 112.172 248.964 112.214 246.977 112.757C244.342 113.489 242.732 114.45 240.327 116.728C239.532 117.481 238.8 118.15 238.696 118.171C238.235 118.359 238.591 117.794 239.574 116.854C241.854 114.617 244.74 111.001 247.187 107.302C247.605 106.654 248.316 105.881 248.776 105.588L249.592 105.045L250.888 105.484C253.084 106.215 255.908 105.693 258.376 104.062C261.094 102.286 265.005 97.5411 265.905 94.9076C266.574 92.9847 266.616 93.0474 264.273 93.1937C258.396 93.549 253.293 97.0813 250.282 102.871C249.864 103.707 249.32 104.48 249.111 104.627C248.881 104.752 248.734 104.794 248.797 104.689C248.839 104.606 249.571 103.101 250.449 101.387C252.206 97.9382 253.544 94.7195 254.757 91.0408C255.176 89.7032 255.824 88.2401 256.2 87.7176C256.849 86.8188 256.849 86.7979 258.187 86.777C259.212 86.7561 259.839 86.5889 260.781 86.1291C262.224 85.4393 264.357 83.4119 265.633 81.5308C266.762 79.8378 268.435 76.4727 269.125 74.4662C269.606 73.0449 270.15 70.1814 269.962 69.9724C269.941 69.9306 269.544 70.0142 269.104 70.1396C266.427 71.0175 263.332 73.2539 261.052 75.992C259.003 78.4374 257.727 81.071 256.912 84.457C256.661 85.4811 256.368 86.4217 256.242 86.5471C256.096 86.6934 256.075 86.6307 256.159 86.3381C256.305 85.7737 257.079 81.7398 257.204 80.6947C257.539 78.1866 257.727 76.0129 257.853 73.5256C257.957 71.4564 258.104 70.5368 258.396 69.9306C258.606 69.4917 258.794 69.011 258.794 68.8856C258.794 68.7811 259.003 68.6766 259.275 68.6766C260.111 68.6766 261.889 67.6315 262.788 66.6282C265.444 63.5976 267.41 57.2018 267.452 51.3913C267.473 49.8864 267.41 48.5696 267.327 48.486C266.846 48.0262 263.06 51.7884 261.554 54.2547C259.358 57.8079 258.376 61.3611 258.376 65.8549C258.376 67.3389 258.271 68.7184 258.166 68.8856C258.02 69.1155 257.957 68.8438 257.957 67.945C257.936 65.207 257.434 58.9157 257.016 56.0731C256.744 54.2965 256.744 53.8576 257.016 52.7289C257.183 52.0183 257.413 51.4122 257.518 51.3704C258.145 51.1614 259.526 49.9282 260.07 49.0921C261.554 46.7303 262.035 44.2222 262.015 38.8923C261.994 35.0883 261.617 32.2876 260.864 30.4692L260.571 29.7585L259.589 30.9499C255.678 35.7781 254.527 42.6964 256.41 49.9491C256.577 50.6388 256.661 51.4331 256.598 51.7257C256.472 52.1437 256.263 51.5167 255.636 49.0503C254.841 45.8943 253.335 41.2333 252.52 39.3104C252.248 38.6833 252.101 37.8682 252.101 37.0739C252.101 35.8826 252.164 35.7363 252.917 34.9211C253.858 33.897 254.59 32.1204 254.841 30.2184C255.197 27.4594 254.339 21.8579 252.959 18.0957C252.227 16.11 251.286 14.2916 250.93 14.1871C250.679 14.1035 249.654 16.4027 249.09 18.2629C248.483 20.3739 248.253 23.5091 248.525 26.2471C248.839 29.3614 249.341 31.2425 250.533 33.7089C252.206 37.1366 251.537 36.7604 249.738 33.249C248.023 29.9466 245.827 26.2262 244.447 24.3242C243.987 23.7181 243.652 22.9447 243.506 22.1923C243.318 21.0845 243.318 21.0009 243.924 20.1858C245.137 18.5137 245.409 15.1068 244.593 11.9298C244.07 9.94419 242.627 6.85081 241.268 4.82339C240.118 3.1095 238.152 0.956673 237.775 0.956673C237.106 0.956673 236.96 6.91351 237.545 10.0278C238.403 14.5006 239.783 17.5104 242.272 20.2903C242.586 20.6247 242.899 21.2517 242.983 21.6489L243.108 22.3804L242.627 21.837C242.376 21.5235 241.414 20.353 240.494 19.2243C239.574 18.0748 237.483 15.7965 235.851 14.1453L232.861 11.1565V10.0696C232.861 8.10488 231.564 6.03566 229.18 4.15456C227.779 3.06769 226.231 2.31525 222.989 1.14478C221.734 0.705858 220.542 0.246032 220.312 0.120625C219.999 -0.046585 219.894 -0.046585 219.894 0.162427Z" fill="white"/>
<path opacity="0.5" d="M48.4166 0.420069C42.4447 2.64516 41.3132 3.24264 39.4274 5.13809C38.0654 6.49787 37.2482 8.10488 37.1435 9.71189L37.0387 10.948L34.9433 12.9259C32.806 14.945 29.8097 18.2208 28.0076 20.5077C27.4419 21.2288 26.939 21.8057 26.8971 21.8057C26.5828 21.8057 27.2114 20.3429 27.7771 19.7454C30.7107 16.6962 32.6384 11.2983 32.806 5.73556C32.8689 3.22203 32.5755 0.790915 32.2193 0.790915C31.8212 0.790915 29.7049 3.09842 28.6991 4.60242C26.0589 8.53753 24.9065 11.8958 24.9274 15.5219C24.9274 17.5615 25.2627 18.7771 26.1008 19.869C26.918 20.9404 26.6666 22.0735 25.0532 24.484C22.853 27.7599 22.0149 29.1814 20.1919 32.6221C18.3689 36.0833 17.7822 36.4336 19.3747 33.1166C20.5691 30.6442 21.1139 28.6664 21.4072 25.8026C21.8263 21.9087 21.1977 17.9736 19.71 14.8214L19.0604 13.4616L18.4527 14.4917C16.5669 17.6233 15.0582 23.5775 15.0792 27.8011C15.0792 31.0357 15.7497 33.1372 17.1746 34.4557C17.7613 35.012 17.8241 35.1768 17.8241 36.3512C17.8241 37.1547 17.6775 37.9788 17.426 38.5351C16.3993 40.925 14.3039 47.6003 13.8639 49.9078C13.7382 50.5877 13.5915 51.1645 13.5496 51.2263C13.2981 51.453 13.1934 50.1962 13.4029 49.5781C13.822 48.2801 14.262 45.4782 14.3877 43.2531C14.5344 40.8426 14.1572 38.0406 13.3819 35.8155C12.8581 34.2703 11.0561 31.1799 10.0713 30.0674L9.27501 29.1608L8.85594 30.5824C8.1016 33.0548 7.91302 34.5794 7.89207 38.2878C7.87111 42.3054 8.16447 44.5098 8.96071 46.4671C9.79886 48.5274 10.5322 49.3721 12.5438 50.567C12.5857 50.5876 12.7533 51.1439 12.9 51.8238C13.1515 52.8746 13.1515 53.369 12.7743 56.2122C12.3971 59.0966 11.978 64.7417 11.9571 67.1316C11.9571 67.7497 11.8942 67.9557 11.7685 67.7497C11.6637 67.5849 11.538 65.9161 11.4752 64.0412C11.3285 59.4262 10.5532 56.7891 8.26923 53.163C6.80247 50.8761 3.03081 47.2088 2.56982 47.6415C2.27647 47.9299 2.46505 53.2042 2.82127 55.1821C3.3032 57.7574 4.68615 61.8367 5.62907 63.4643C6.94915 65.6894 9.17025 67.5231 10.5951 67.5437C11.3704 67.5643 11.9152 69.3361 12.0619 72.2823C12.1666 74.631 12.3971 77.0827 12.7114 79.4726C12.7743 79.9671 13.0676 81.4505 13.34 82.7691C14.0315 86.1067 13.6753 86.1479 12.9 82.7897C11.9152 78.4631 9.44264 74.6104 5.7967 71.7878C4.4347 70.7371 1.60595 69.1919 0.453498 68.8622C-0.0493911 68.7386 -0.0493911 68.7386 0.0553775 70.1396C0.34873 73.8481 3.97372 80.7294 7.07487 83.3872C8.54163 84.6851 10.1132 85.3444 11.7266 85.3856C13.0676 85.4062 13.0676 85.4268 13.7172 86.3127C14.1153 86.8484 14.7858 88.4348 15.3725 90.1654C16.5669 93.6679 17.9708 96.9231 19.7728 100.405C21.3234 103.392 21.1139 103.949 19.5214 101.064C16.3783 95.3573 11.4752 92.0609 5.62907 91.7106C3.2613 91.5664 3.3032 91.5252 4.01563 93.4413C4.68615 95.1719 5.67097 96.7171 7.28441 98.5507C11.4752 103.31 15.6659 105.082 19.3957 103.681C20.2757 103.351 20.2967 103.372 21.1348 103.907C21.6168 104.216 22.392 105.082 22.9578 105.927C25.3884 109.553 27.2533 111.839 29.9563 114.559C31.1297 115.754 31.6326 116.372 31.3812 116.372C31.1716 116.372 30.5221 115.857 29.9144 115.218C27.9448 113.117 25.4094 111.613 22.7483 110.912C21.072 110.48 17.3212 110.459 15.4145 110.892C13.2772 111.386 11.538 112.046 11.538 112.396C11.538 112.911 13.8639 115.115 15.4145 116.063C21.3234 119.669 27.2114 120.348 30.0192 117.711C30.7316 117.052 30.8573 117.011 31.7584 117.134C32.4917 117.217 32.9737 117.464 33.707 118.103C36.1796 120.245 39.7836 122.594 43.1362 124.242C44.7287 125.025 45.2316 125.355 44.9173 125.396C44.6449 125.437 43.8486 125.149 43.1362 124.737C40.8313 123.48 38.7569 122.924 36.452 122.924C33.3508 122.924 30.8992 123.562 28.1753 125.087C26.5828 125.973 24.5293 127.436 24.5293 127.704C24.5293 128.033 26.3732 129.146 27.8191 129.681C29.4534 130.3 33.267 131 34.9014 131C36.5568 131 39.4693 130.444 40.7684 129.867C42.0047 129.331 44.4354 127.168 44.4354 126.591C44.4354 126.426 44.603 126.241 44.8125 126.179C46.2164 125.788 46.5936 125.829 49.108 126.653C51.6853 127.498 56.7561 128.631 56.9657 128.425C57.0285 128.363 57.0076 128.074 56.8819 127.765C56.7142 127.271 56.5047 127.188 54.3884 126.756C53.1311 126.488 50.6377 125.788 48.8775 125.19L45.6926 124.119L45.4621 123.295C45.3364 122.821 45.2525 121.461 45.2525 120.245C45.3154 116.393 44.1839 112.973 41.8161 109.862C41.1875 109.058 40.2446 108.028 39.6789 107.595C39.1341 107.142 38.6312 106.751 38.5683 106.668C38.3378 106.442 36.2424 105.247 36.0329 105.247C35.9072 105.247 35.8653 105.411 35.9281 105.597C35.991 105.803 36.2424 107.224 36.4729 108.749C37.2692 113.879 38.2121 117.279 39.3017 118.865C40.517 120.678 43.0105 122.553 44.2049 122.553C44.582 122.553 45.0221 123.274 44.7916 123.501C44.603 123.686 40.7685 121.688 38.5683 120.225C37.353 119.421 35.5719 118.123 34.6081 117.32C33.6442 116.516 32.6175 115.672 32.3241 115.424C31.5488 114.806 31.486 113.302 32.1774 111.324C33.707 106.812 33.0575 100.652 30.543 96.1814C29.8516 94.9659 27.8819 92.2669 27.6724 92.2669C27.5676 92.2669 26.7714 98.901 26.499 102.053C26.4361 102.836 26.499 104.381 26.6037 105.453C26.7923 107.039 26.9809 107.719 27.6514 109.058C28.4686 110.686 30.1449 112.664 30.7107 112.664C31.004 112.664 31.3602 113.838 31.1297 114.065C30.7107 114.497 24.8017 107.101 22.2244 102.919C21.5539 101.806 21.7425 100.055 22.6644 98.7362C24.1312 96.6141 25.0741 93.9769 25.598 90.4333C26.0589 87.2193 25.3884 83.0163 23.8378 79.4314L23.4188 78.4425L22.2035 81.3887C20.5062 85.468 19.5633 88.4142 19.1652 90.7835C18.8718 92.6172 18.8718 92.988 19.1652 94.6156C19.5004 96.5111 20.3386 98.6126 20.9881 99.1894C21.4072 99.5603 21.5329 100.405 21.1767 100.611C20.9881 100.735 19.2909 97.4382 18.2013 94.7392C17.2374 92.3905 15.9802 88.682 15.4145 86.56L14.9116 84.6439L15.5192 83.3047C15.8545 82.563 16.2316 81.9656 16.3364 81.9656C16.4412 81.9656 17.1117 81.4505 17.8032 80.8118C19.8985 78.9164 21.5748 75.929 22.6016 72.3029C23.1045 70.5105 23.1673 69.9748 23.1673 66.8226C23.1673 64.8859 23.1045 63.1553 23.0207 62.9493C22.8949 62.6608 22.4549 63.1141 20.8624 65.1744C16.5669 70.7577 15.1211 73.2094 14.5553 75.8466C14.1153 77.8038 14.241 80.1731 14.8277 81.3269C15.184 82.048 15.2259 82.3158 15.0582 82.8103C14.9535 83.1399 14.7858 83.3666 14.6811 83.3047C14.5134 83.2017 14.0525 80.7706 13.5286 77.33C13.361 76.1968 13.1305 73.4154 12.9838 71.1285L12.7533 66.9874L13.5077 65.9573C14.0734 65.1744 14.4925 64.8447 15.2468 64.5563C19.5214 63.0111 23.314 57.7368 24.4036 51.865C24.7808 49.7841 24.9274 47.9299 24.7179 48.0123C24.6341 48.0535 23.3559 49.0012 21.8682 50.1344C17.5308 53.472 15.5192 55.6971 14.3039 58.5403C13.822 59.6528 13.7591 60.1267 13.7172 62.3724C13.6753 64.6593 13.6334 64.9477 13.2353 65.3392L12.7952 65.7924L12.9 64.6593C12.9419 64.0412 13.0467 62.5578 13.1095 61.3629C13.2562 58.6433 13.9058 54.1725 14.5973 50.9585C15.1421 48.5068 15.1421 48.4862 16.064 47.8063C16.7974 47.2706 17.1536 47.147 18.0337 47.147C20.3805 47.147 23.0626 45.7872 25.4722 43.3561C27.1066 41.7285 27.4628 41.2546 28.5734 39.2974C29.3068 38.02 30.4802 35.012 30.3125 34.8472C30.2497 34.7854 27.5257 35.7743 24.7389 36.8869C19.4166 39.0089 16.5669 42.1405 16.5669 45.8284C16.5669 46.7349 16.4831 46.9616 16.1269 47.147C15.8964 47.2912 15.6449 47.3324 15.5821 47.2706C15.2468 46.9616 18.327 38.2672 20.0871 34.5793C21.1139 32.4161 21.1139 32.4161 22.0987 32.1276C22.874 31.901 23.2721 31.901 23.8798 32.0864C25.2837 32.4985 27.5467 32.3749 29.3068 31.7774C31.4231 31.0769 33.0575 30.088 34.6709 28.5016C35.9491 27.2448 37.8349 24.7313 37.6463 24.5458C37.6044 24.484 36.012 24.5458 34.1052 24.6694C29.0134 24.9991 26.7295 25.679 24.8227 27.4096C23.8588 28.2749 22.853 30.0262 22.853 30.8091C22.853 31.1387 22.6854 31.3653 22.3082 31.5095C21.9939 31.6126 21.7006 31.6538 21.6377 31.6126C21.3863 31.3447 25.2208 25.0197 27.379 22.1353C28.5943 20.5283 28.741 20.4047 29.6001 20.2811C30.3545 20.1781 30.7526 20.2399 31.7793 20.7137C32.7432 21.1464 33.4346 21.2906 34.8595 21.3524C38.5683 21.5378 41.3132 20.4871 44.0582 17.8706C44.9592 17.0052 45.6926 16.2223 45.6926 16.1193C45.6926 16.0163 45.4411 15.8927 45.1478 15.8721C44.8335 15.8515 43.4715 15.6455 42.1304 15.4188C38.3378 14.7802 36.2844 14.9038 33.9166 15.8927C32.806 16.346 31.2345 17.85 30.7735 18.8595C30.4592 19.56 30.2706 19.7454 29.8725 19.7454C29.5792 19.7454 29.3487 19.7042 29.3487 19.6424C29.3487 19.354 32.0098 16.449 34.3776 14.1415C36.6615 11.937 37.1854 11.5043 37.8768 11.4013C40.3284 11.0305 41.1037 10.8244 42.34 10.227C45.6297 8.59935 48.1232 5.61195 49.6528 1.47081C49.9252 0.770317 50.0929 0.111033 50.0719 0.0286219C50.03 -0.0743916 49.2757 0.111029 48.4166 0.420069Z" fill="white"/>
</svg>
