<svg width="60" height="60" viewBox="0 0 60 60" fill="none" xmlns="http://www.w3.org/2000/svg">
<path fill-rule="evenodd" clip-rule="evenodd" d="M30 60C46.5685 60 60 46.5685 60 30C60 13.4315 46.5685 0 30 0C13.4315 0 0 13.4315 0 30C0 46.5685 13.4315 60 30 60ZM25.0093 20.0098C25.0093 21.6721 23.6641 23.0196 22.0047 23.0196C20.3452 23.0196 19 21.6721 19 20.0098C19 18.3475 20.3452 17 22.0047 17C23.6641 17 25.0093 18.3475 25.0093 20.0098ZM27.8465 41.9986V25.3003H32.8149V27.5838H32.8849C33.5757 26.2729 35.2648 24.8876 37.7847 24.8876C43.0332 24.8876 44 28.3445 44 32.8427V42H38.8215V33.8785C38.8215 31.9431 38.7885 29.4519 36.1285 29.4519C33.4315 29.4519 33.0222 31.562 33.0222 33.7409V41.9986H27.8465ZM24.596 25.3003H19.412V41.9986H24.596V25.3003Z" fill="white"/>
</svg>
