<svg width="60" height="60" viewBox="0 0 60 60" fill="none" xmlns="http://www.w3.org/2000/svg">
<path fill-rule="evenodd" clip-rule="evenodd" d="M30 60C46.5685 60 60 46.5685 60 30C60 13.4315 46.5685 0 30 0C13.4315 0 0 13.4315 0 30C0 46.5685 13.4315 60 30 60ZM26.818 26.818C27.6619 25.9741 28.8065 25.5 30 25.5C31.1935 25.5 32.3381 25.9741 33.182 26.818C34.0259 27.6619 34.5 28.8065 34.5 30C34.5 31.1935 34.0259 32.3381 33.182 33.182C32.3381 34.0259 31.1935 34.5 30 34.5C28.8065 34.5 27.6619 34.0259 26.818 33.182C25.9741 32.3381 25.5 31.1935 25.5 30C25.5 28.8065 25.9741 27.6619 26.818 26.818ZM35.3033 24.6967C33.8968 23.2902 31.9891 22.5 30 22.5C28.0109 22.5 26.1032 23.2902 24.6967 24.6967C23.2902 26.1032 22.5 28.0109 22.5 30C22.5 31.9891 23.2902 33.8968 24.6967 35.3033C26.1032 36.7098 28.0109 37.5 30 37.5C31.9891 37.5 33.8968 36.7098 35.3033 35.3033C36.7098 33.8968 37.5 31.9891 37.5 30C37.5 28.0109 36.7098 26.1032 35.3033 24.6967ZM39.2008 23.4508C39.5525 23.0992 39.75 22.6223 39.75 22.125C39.75 21.6277 39.5525 21.1508 39.2008 20.7992C38.8492 20.4475 38.3723 20.25 37.875 20.25C37.3777 20.25 36.9008 20.4475 36.5492 20.7992C36.1975 21.1508 36 21.6277 36 22.125C36 22.6223 36.1975 23.0992 36.5492 23.4508C36.9008 23.8025 37.3777 24 37.875 24C38.3723 24 38.8492 23.8025 39.2008 23.4508ZM23.9565 18.087C25.683 18.0105 26.289 18 30 18C33.81 18 34.3875 18.009 36.042 18.087C37.215 18.141 38.004 18.2985 38.739 18.5835C39.3518 18.8088 39.9056 19.1698 40.359 19.6395C40.8271 20.094 41.1874 20.6475 41.4135 21.2595C41.697 21.9915 41.856 22.7835 41.9115 23.9565C41.988 25.683 41.9985 26.289 41.9985 30C41.9985 33.807 41.9895 34.3875 41.9115 36.042C41.8575 37.215 41.6985 38.004 41.4135 38.742C41.1645 39.3885 40.863 39.858 40.3575 40.362C39.9031 40.8302 39.3495 41.1905 38.7375 41.4165C38.004 41.7 37.215 41.8575 36.042 41.913C34.3155 41.9895 33.711 42 29.9985 42C26.19 42 25.611 41.991 23.955 41.913C22.785 41.859 21.996 41.7 21.255 41.4135C20.61 41.1645 20.1405 40.863 19.635 40.359C19.137 39.861 18.837 39.3915 18.582 38.739C18.2985 38.0085 18.141 37.218 18.0855 36.0435C18.009 34.317 17.9985 33.7125 17.9985 30C17.9985 26.1915 18.009 25.6125 18.087 23.9565C18.141 22.782 18.2985 21.9945 18.5835 21.2595C18.809 20.6469 19.17 20.0931 19.6395 19.6395C20.0931 19.1704 20.6469 18.8099 21.2595 18.585C21.9915 18.3 22.7805 18.1425 23.9565 18.087ZM36.1845 15.09C34.584 15.015 34.0755 15 30 15C25.9245 15 25.416 15.0195 23.8155 15.09C22.218 15.165 21.1305 15.4155 20.175 15.7875C19.1736 16.1636 18.2665 16.7538 17.517 17.517C16.7532 18.266 16.1629 19.1733 15.7875 20.175C15.4155 21.132 15.165 22.218 15.09 23.817C15.015 25.416 15 25.9245 15 30C15 34.0755 15.018 34.584 15.09 36.183C15.165 37.7805 15.4155 38.8695 15.7875 39.825C16.1639 40.8262 16.7541 41.7332 17.517 42.483C18.2663 43.2464 19.1735 43.8367 20.175 44.2125C21.132 44.583 22.2195 44.835 23.8155 44.91C25.416 44.985 25.9245 45 30 45C34.0755 45 34.584 44.9805 36.1845 44.91C37.7805 44.835 38.8695 44.583 39.825 44.2125C40.826 43.8356 41.7329 43.2455 42.483 42.483C43.2466 41.7339 43.837 40.8266 44.2125 39.825C44.583 38.868 44.835 37.7805 44.91 36.183C44.985 34.584 45 34.0755 45 30C45 25.9245 44.9805 25.416 44.91 23.817C44.835 22.2195 44.583 21.1305 44.2125 20.175C43.8359 19.1739 43.2457 18.2668 42.483 17.517C41.649 16.6845 40.815 16.1685 39.825 15.7875C38.8695 15.4155 37.7805 15.165 36.1845 15.09Z" fill="white"/>
</svg>
