<svg width="35" height="35" viewBox="0 0 35 35" fill="none" xmlns="http://www.w3.org/2000/svg">
<path fill-rule="evenodd" clip-rule="evenodd" d="M35 17.5C35 27.165 27.165 35 17.5 35C7.83502 35 0 27.165 0 17.5C0 7.83502 7.83502 0 17.5 0C27.165 0 35 7.83502 35 17.5ZM25 9.91006C24.0832 8.98398 22.9912 8.24973 21.7876 7.75011C20.5841 7.25049 19.2931 6.99552 17.99 7.00006C12.53 7.00006 8.08 11.4501 8.08 16.9101C8.08 18.6601 8.54 20.3601 9.4 21.8601L8 27.0001L13.25 25.6201C14.7 26.4101 16.33 26.8301 17.99 26.8301C23.45 26.8301 27.9 22.3801 27.9 16.9201C27.9 14.2701 26.87 11.7801 25 9.91006ZM13.79 24.0001C15.06 24.7501 16.51 25.1501 17.99 25.1501C22.53 25.1501 26.23 21.4601 26.21 16.9201C26.214 15.8372 26.0031 14.7642 25.5894 13.7635C25.1757 12.7627 24.5675 11.854 23.8 11.0901C22.25 9.53006 20.18 8.67006 17.98 8.67006C13.44 8.67006 9.74 12.3701 9.74 16.9101C9.74114 18.4593 10.1777 19.977 11 21.2901L11.2 21.6001L10.37 24.6401L13.49 23.8201L13.79 24.0001ZM22.1808 18.8301C22.3294 18.9025 22.4488 18.9607 22.51 18.9901C22.5595 19.0138 22.605 19.0348 22.6468 19.0541C22.8162 19.1322 22.9238 19.1818 22.98 19.2701C23.05 19.3801 23.05 19.8701 22.84 20.4501C22.64 21.0301 21.65 21.5601 21.17 21.6301C20.74 21.6901 20.2 21.7201 19.61 21.5301C19.25 21.4201 18.79 21.2701 18.2 21.0101C15.829 19.9871 14.2349 17.6571 13.9945 17.3057C13.9835 17.2895 13.9753 17.2775 13.97 17.2701L13.9681 17.2675C13.8407 17.0977 12.96 15.9237 12.96 14.7101C12.96 13.5845 13.5048 12.9866 13.7619 12.7045C13.7834 12.6808 13.803 12.6594 13.82 12.6401C14.05 12.3901 14.31 12.3301 14.48 12.3301H14.96C14.9774 12.3312 14.9955 12.3314 15.0144 12.3317C15.1585 12.3334 15.3432 12.3356 15.52 12.7601C15.72 13.2601 16.22 14.4801 16.28 14.6001C16.34 14.7201 16.38 14.8601 16.3 15.0301C16.2932 15.0437 16.2866 15.057 16.2801 15.07C16.211 15.209 16.1598 15.312 16.05 15.4401C16.0117 15.4848 15.9713 15.5335 15.9306 15.5828C15.8437 15.6879 15.7549 15.7952 15.68 15.8701C15.55 16.0001 15.43 16.1301 15.57 16.3801C15.72 16.6301 16.21 17.4401 16.95 18.1001C17.7537 18.8183 18.4551 19.1198 18.7978 19.2671C18.856 19.2921 18.9038 19.3127 18.94 19.3301C19.19 19.4601 19.34 19.4401 19.48 19.2701C19.62 19.1101 20.09 18.5501 20.26 18.3001C20.43 18.0601 20.59 18.1001 20.82 18.1801C20.9861 18.248 21.7225 18.6068 22.1808 18.8301Z" fill="white"/>
</svg>
