<svg width="24" height="24" viewBox="0 0 24 24" fill="none" xmlns="http://www.w3.org/2000/svg">
<path d="M14.9606 7.01229V3.01229C14.9606 2.74707 15.0659 2.49272 15.2535 2.30518C15.441 2.11764 15.6954 2.01229 15.9606 2.01229C16.2258 2.01229 16.4802 2.11764 16.6677 2.30518C16.8552 2.49272 16.9606 2.74707 16.9606 3.01229V5.62329C17.5906 4.98929 21.6616 0.897288 22.2536 0.305288C22.3458 0.209778 22.4562 0.133596 22.5782 0.0811868C22.7002 0.0287778 22.8314 0.00119157 22.9642 3.77567e-05C23.097 -0.00111606 23.2286 0.0241857 23.3515 0.0744665C23.4744 0.124747 23.5861 0.199001 23.68 0.292893C23.7739 0.386786 23.8481 0.498438 23.8984 0.621334C23.9487 0.744231 23.974 0.87591 23.9728 1.00869C23.9717 1.14147 23.9441 1.27269 23.8917 1.39469C23.8393 1.5167 23.7631 1.62704 23.6676 1.71929C23.0756 2.31129 19.0256 6.38429 18.3996 7.01229H20.9606C21.2258 7.01229 21.4802 7.11765 21.6677 7.30518C21.8552 7.49272 21.9606 7.74707 21.9606 8.01229C21.9606 8.2775 21.8552 8.53186 21.6677 8.71939C21.4802 8.90693 21.2258 9.01229 20.9606 9.01229H16.9606C16.4302 9.01229 15.9214 8.80157 15.5464 8.4265C15.1713 8.05143 14.9606 7.54272 14.9606 7.01229ZM23.0556 16.7513C23.6351 17.3324 23.9605 18.1196 23.9605 18.9403C23.9605 19.761 23.6351 20.5482 23.0556 21.1293L22.1436 22.1793C13.9536 30.0173 -5.97541 10.0953 1.74359 1.87929L2.89359 0.879288C3.47523 0.315834 4.25531 0.00402707 5.06509 0.0113257C5.87486 0.0186243 6.6492 0.344441 7.22059 0.918288C7.25159 0.948288 9.10359 3.35629 9.10359 3.35629C9.65151 3.93483 9.95638 4.70166 9.95526 5.49849C9.95414 6.29531 9.64713 7.06128 9.09759 7.63829L7.94059 9.09429C8.58153 10.6513 9.52378 12.0664 10.7132 13.2583C11.9026 14.4501 13.3158 15.3952 14.8716 16.0393L16.3366 14.8743C16.9124 14.3233 17.6784 14.0153 18.4754 14.0141C19.2724 14.013 20.0392 14.3189 20.6166 14.8683C20.6166 14.8683 23.0256 16.7213 23.0556 16.7513ZM21.6806 18.2053C21.6806 18.2053 19.2876 16.3633 19.2566 16.3333C19.0506 16.129 18.7722 16.0144 18.4821 16.0144C18.192 16.0144 17.9136 16.129 17.7076 16.3333C17.6806 16.3593 15.6636 17.9673 15.6636 17.9673C15.5277 18.0755 15.3659 18.1464 15.1942 18.173C15.0226 18.1997 14.8469 18.1812 14.6846 18.1193C12.6682 17.369 10.8366 16.1938 9.31417 14.6736C7.7917 13.1534 6.61389 11.3236 5.86059 9.30829C5.79379 9.14374 5.77201 8.96438 5.79749 8.78863C5.82298 8.61288 5.8948 8.44708 6.00559 8.30829C6.00559 8.30829 7.61359 6.29429 7.64059 6.26829C7.84486 6.06227 7.95947 5.7839 7.95947 5.49379C7.95947 5.20367 7.84486 4.9253 7.64059 4.71929C7.61059 4.68929 5.76859 2.29429 5.76859 2.29429C5.55949 2.1068 5.28659 2.00638 5.00584 2.01363C4.72508 2.02089 4.45773 2.13525 4.25859 2.33329L3.10859 3.33329C-2.53341 10.1163 14.7386 26.4303 20.6816 20.8163L21.5936 19.7653C21.8086 19.568 21.9381 19.2945 21.9545 19.0032C21.971 18.7118 21.872 18.4255 21.6806 18.2053Z" fill="white"/>
</svg>
