<svg width="35" height="35" viewBox="0 0 35 35" fill="none" xmlns="http://www.w3.org/2000/svg">
<path fill-rule="evenodd" clip-rule="evenodd" d="M17.5 35C27.165 35 35 27.165 35 17.5C35 7.83502 27.165 0 17.5 0C7.83502 0 0 7.83502 0 17.5C0 27.165 7.83502 35 17.5 35ZM13.5726 10.1713C12.5832 8.77232 10.6044 8.5372 9.40812 9.79671L7.87621 11.4084C7.35322 11.9596 6.95609 12.7235 7.0039 13.6153C7.1005 15.4192 7.86645 19.1118 11.9001 23.3567C16.2217 27.907 20.3442 28.1362 22.1239 27.9606C22.8528 27.8884 23.4431 27.4992 23.8753 27.0436L25.2609 25.585C26.5342 24.2445 26.1634 22.0016 24.5701 21.0845L22.7064 20.0114C21.6341 19.3948 20.3051 19.5714 19.4523 20.4689L19.0542 20.8884C18.9606 20.9141 18.8621 20.9165 18.7674 20.8953C18.3741 20.8309 17.5272 20.4845 16.13 19.0133C14.7366 17.547 14.3941 16.6435 14.3287 16.1996C14.2975 15.985 14.3287 15.8718 14.3414 15.8367L14.3434 15.8309L14.5824 15.5801C15.527 14.585 15.5933 13.0309 14.802 11.9118L13.5726 10.1713ZM12.3773 11.0162C11.8777 10.3099 10.979 10.267 10.4687 10.8045L8.93684 12.4162C8.61484 12.7577 8.44409 13.1479 8.46556 13.5372C8.54361 15.0104 9.17882 18.3684 12.9608 22.3489C16.9262 26.5245 20.5803 26.6416 21.9805 26.5031C22.2566 26.4767 22.5415 26.3226 22.8137 26.0357L24.1993 24.5772C24.7984 23.947 24.6413 22.8133 23.8402 22.3528L21.9766 21.2796C21.476 20.9918 20.8896 21.0806 20.5139 21.4767L20.069 21.945L19.8991 21.7835C20.0685 21.9451 20.068 21.946 20.068 21.946L20.067 21.947L20.0641 21.9509L20.0573 21.9567L20.0436 21.9704C20.0027 22.0106 19.9583 22.0472 19.9109 22.0796C19.8329 22.1343 19.7294 22.1957 19.5977 22.2475C19.3284 22.3538 18.9732 22.4104 18.5332 22.3392C17.6765 22.2006 16.5544 21.585 15.0693 20.0211C13.5784 18.4523 13.0076 17.2826 12.8808 16.4114C12.8154 15.9684 12.8671 15.6143 12.9627 15.346C13.0158 15.1965 13.0915 15.056 13.1871 14.9294L13.2164 14.8933L13.2301 14.8787L13.2359 14.8718L13.2389 14.8689L13.2408 14.8679C13.2408 14.8679 13.2408 14.866 13.7609 15.3587L13.2418 14.866L13.5218 14.5714C13.956 14.1138 14.0194 13.3392 13.6077 12.7567L12.3773 11.0162ZM17.9634 11.9801C17.9897 11.8877 18.0339 11.8013 18.0936 11.726C18.1533 11.6506 18.2273 11.5878 18.3113 11.541C18.3953 11.4943 18.4877 11.4646 18.5832 11.4535C18.6787 11.4425 18.7754 11.4504 18.8679 11.4767L18.6669 12.1801L18.8688 11.4777H18.8708L18.8747 11.4787L18.8815 11.4806L18.901 11.4874C18.978 11.5132 19.0538 11.5422 19.1284 11.5743C19.2708 11.6348 19.465 11.7284 19.7041 11.8699C20.1822 12.1528 20.833 12.6211 21.5989 13.3879C22.3649 14.1538 22.8352 14.8055 23.1172 15.2826C23.2587 15.5216 23.3523 15.7157 23.4138 15.8582C23.4459 15.9327 23.4749 16.0085 23.5007 16.0855L23.5065 16.105L23.5085 16.1128L23.5094 16.1157V16.1177L22.8069 16.3196L23.5104 16.1187C23.565 16.305 23.5434 16.5053 23.4502 16.6757C23.3571 16.846 23.2001 16.9724 23.0138 17.027C22.8274 17.0816 22.6271 17.0599 22.4567 16.9668C22.2863 16.8737 22.16 16.7167 22.1054 16.5304L22.1024 16.5206C22.0338 16.3507 21.9523 16.1863 21.8585 16.0289C21.6399 15.6611 21.2477 15.105 20.5647 14.4221C19.8817 13.7392 19.3255 13.347 18.9586 13.1294C18.8012 13.0357 18.6368 12.9541 18.4668 12.8855L18.4571 12.8816C18.2726 12.8264 18.1173 12.7007 18.0249 12.5318C17.9324 12.3628 17.9103 12.1652 17.9634 11.9801ZM18.0378 8.13811C17.8803 8.25152 17.7742 8.42276 17.7428 8.61427C17.7141 8.80656 17.7612 9.00243 17.8757 9.15959C17.9901 9.31675 18.1618 9.4226 18.3537 9.45428C18.4578 9.47734 18.5613 9.50336 18.6639 9.53232C18.9987 9.63205 19.3258 9.75595 19.6426 9.90306C20.472 10.2835 21.6185 10.9674 22.8254 12.1753C24.0334 13.3831 24.7184 14.5284 25.0989 15.3577C25.2461 15.6748 25.37 16.0022 25.4697 16.3372C25.5024 16.4419 25.5288 16.5484 25.5487 16.6562C25.5805 16.8471 25.6867 17.0176 25.844 17.1305C26.0012 17.2433 26.1968 17.2892 26.3879 17.2582C26.5805 17.2229 26.7517 17.1134 26.8643 16.9531C26.9769 16.7929 27.022 16.5948 26.9899 16.4016L26.985 16.3714C26.9543 16.2223 26.9175 16.0745 26.8747 15.9284C26.7899 15.6377 26.6513 15.2338 26.4288 14.7479C25.9829 13.7762 25.2033 12.4826 23.8607 11.1401C22.5181 9.79867 21.2252 9.01915 20.2534 8.5733C19.7675 8.35086 19.3626 8.21135 19.0728 8.12647C18.9284 8.08549 18.8123 8.05623 18.7293 8.03866C18.6984 8.03148 18.6469 8.02166 18.6121 8.01502C18.5997 8.01265 18.5894 8.01068 18.583 8.0094C18.3914 7.97842 18.1953 8.02471 18.0378 8.13811Z" fill="white"/>
</svg>
