<svg width="1500" height="1500" viewBox="0 0 1500 1500" fill="none" xmlns="http://www.w3.org/2000/svg">
<path d="M149.44 147C73.21 149.65 72.68 258.52 148.86 261.92L816.74 264.8C701.53 318.24 594.48 389.9 500.63 474.74C498.29 472.39 456.4 430.53 452.64 426.76C430.22 404.36 393.86 404.31 371.45 426.76C349.01 449.19 349.01 485.52 371.45 507.95L419.15 555.74C249.39 737.53 133.22 972.41 98.01 1219.16H98.11C96.94 1227.13 95.67 1235.07 94.65 1243.08C90.42 1276.42 112.5 1307.11 143.94 1311.59C175.39 1316.08 204.38 1292.75 208.6 1259.42C216.99 1194.99 227.8 1139.36 247.74 1078.25H246.97C296.94 914.35 383.87 762.36 500.44 637.03C500.44 637.03 655.47 791.45 657.63 793.07C543.65 918.22 465.98 1075.15 442.69 1248.31C438.46 1279.75 460.54 1308.75 491.98 1312.97C523.42 1317.2 552.32 1295.13 556.55 1263.68C597.77 957.28 835.89 706.86 1143.24 635.97V1117.25L1066.08 1040.09C1010.04 988.35 933.04 1065.31 984.79 1121.38L1258.15 1394.74V500.59C1066.13 519.29 879 591.55 738.72 714.18C736.87 711.59 582.11 556.22 582.11 556.22C756.11 399.18 979.02 298.32 1210.98 265.37C1377.87 244.73 1397 150 1397 150C1397 150 150.19 147.1 149.44 147Z" fill="white" stroke="#FEFEFE" stroke-width="46.1201" stroke-miterlimit="10"/>
</svg>
