<svg width="120" height="52" viewBox="0 0 120 52" fill="none" xmlns="http://www.w3.org/2000/svg">
<path d="M89.5079 0.4646C88.5775 0.4646 87.7317 0.949871 87.2813 1.76385C83.815 8.02762 68.7331 35.2676 62.3508 46.5584C61.2167 48.5648 62.5635 51.045 64.8681 51.0208L69.9761 50.9317L71.3422 48.4965L72.7083 46.0315H85.0329H89.3424C94.1424 46.0315 98.4175 42.9962 100 38.4646H77.0001C80.1778 32.9705 89.6361 16.9574 89.6955 17.0465C89.7846 17.1059 92.398 21.62 95.5459 27.0844L101.278 36.9737L109.326 50.9317L114.434 51.0208C116.753 51.0454 118.096 48.569 116.958 46.5481C110.937 35.8557 95.5586 8.54937 91.728 1.75494C91.2752 0.951733 90.4299 0.4646 89.5079 0.4646Z" fill="white"/>
<path d="M8.7738e-05 4.47379V8.48298H7.12746C21.0557 8.48298 24.6491 8.57208 24.5304 8.83936C24.4413 9.04725 18.8878 18.699 12.2058 30.3108L0 51.3963L4.92983 51.4854C8.34792 51.5225 11.2069 49.982 12.9112 47.0188C15.5254 42.4734 19.713 34.7753 24.7679 26.0047C32.7269 12.1952 39.2901 0.820957 39.3792 0.67247C39.4386 0.55368 28.2723 0.464588 14.5519 0.464588H4.00929C1.79507 0.464588 8.7738e-05 2.25957 8.7738e-05 4.47379Z" fill="white"/>
<path d="M66.1453 9.1172C55.7808 27.0844 54.9493 28.5098 54.7414 28.5098C54.6226 28.5098 51.9498 24.0255 48.7721 18.5314C45.6242 13.067 42.892 8.37476 42.7435 8.13718C42.4762 7.8402 41.8823 8.67174 39.9519 12.0276C38.2482 14.9535 38.4472 18.0353 40.136 20.9698C41.1497 22.7314 42.3931 24.8899 43.7235 27.2031L49.7225 37.6271L45.8618 44.2794L42.001 50.9317L46.9309 51.0208C50.3731 51.0582 53.2545 49.5768 54.9737 46.5944C57.5637 42.1013 61.6097 34.4919 66.769 25.5401C74.728 11.7306 81.3803 0.20787 81.3803 0.20787C81.3803 0.20787 79.242 -1.14441e-05 76.4505 -1.14441e-05C73.3439 -1.14441e-05 70.4723 1.65435 68.9141 4.34188L66.1453 9.1172Z" fill="white"/>
</svg>
