<svg width="35" height="35" viewBox="0 0 35 35" fill="none" xmlns="http://www.w3.org/2000/svg">
<path fill-rule="evenodd" clip-rule="evenodd" d="M17.5 35C27.165 35 35 27.165 35 17.5C35 7.83502 27.165 0 17.5 0C7.83502 0 0 7.83502 0 17.5C0 27.165 7.83502 35 17.5 35ZM22.4808 8.53347C19.2987 7.82218 15.9989 7.82218 12.8168 8.53347L12.4778 8.60847C11.5476 8.81642 10.6933 9.2782 10.0097 9.94249C9.32621 10.6068 8.84023 11.4476 8.60581 12.3715C7.79806 15.5544 7.79806 18.8886 8.60581 22.0715C8.82271 22.926 9.25514 23.7106 9.86178 24.3504C10.4684 24.9901 11.229 25.4635 12.0708 25.7255L12.5098 28.3475C12.532 28.4799 12.5893 28.6039 12.6757 28.7066C12.7621 28.8094 12.8746 28.887 13.0013 28.9314C13.1279 28.9759 13.2642 28.9855 13.3959 28.9593C13.5276 28.9331 13.6498 28.872 13.7498 28.7825L16.4028 26.4085C18.4418 26.5231 20.4868 26.3552 22.4798 25.9095L22.8198 25.8345C23.75 25.6265 24.6043 25.1647 25.2879 24.5004C25.9714 23.8362 26.4574 22.9954 26.6918 22.0715C27.4995 18.8886 27.4995 15.5544 26.6918 12.3715C26.4574 11.4476 25.9714 10.6068 25.2879 9.94249C24.6043 9.2782 23.75 8.81642 22.8198 8.60847L22.4808 8.53347ZM13.1438 9.99647C16.1105 9.33328 19.1871 9.33328 22.1538 9.99647L22.4928 10.0725C23.1523 10.22 23.7579 10.5474 24.2425 11.0184C24.7271 11.4894 25.0716 12.0855 25.2378 12.7405C25.9838 15.6815 25.9838 18.7625 25.2378 21.7025C25.0716 22.3575 24.7271 22.9536 24.2425 23.4246C23.7579 23.8956 23.1523 24.223 22.4928 24.3705L22.1538 24.4465C20.1979 24.8834 18.1889 25.0333 16.1898 24.8915C16.0896 24.8845 15.989 24.8977 15.894 24.9304C15.799 24.963 15.7116 25.0144 15.6368 25.0815L13.7648 26.7565L13.4708 24.9985C13.4462 24.8513 13.3782 24.7149 13.2756 24.6066C13.173 24.4983 13.0404 24.423 12.8948 24.3905L12.8048 24.3705C12.1453 24.223 11.5397 23.8956 11.0551 23.4246C10.5705 22.9536 10.226 22.3575 10.0598 21.7025C9.31352 18.7617 9.31352 15.6812 10.0598 12.7405C10.2259 12.0856 10.5703 11.4896 11.0547 11.0186C11.5391 10.5476 12.1445 10.2201 12.8038 10.0725L13.1438 9.99647ZM13.1778 12.4575C13.3394 12.3618 13.529 12.3244 13.7148 12.3515L13.7128 12.3505C13.8859 12.3836 14.0417 12.4767 14.1528 12.6135C14.6623 13.1945 15.1134 13.8242 15.4998 14.4935C15.7528 14.9415 15.5888 15.3955 15.3528 15.5875L14.8608 15.9835C14.6078 16.1755 14.6418 16.5515 14.6418 16.5515C14.6418 16.5515 15.3708 19.3165 18.1018 20.0135L18.1118 20.0075C18.1118 20.0075 18.4778 20.0415 18.6798 19.7955L19.0728 19.2995C19.2568 19.0535 19.7118 18.9065 20.1598 19.1495C20.8284 19.5384 21.4583 19.9905 22.0408 20.4995C22.3308 20.7425 22.3988 21.1005 22.1978 21.4805V21.4875C21.9838 21.8645 21.7088 22.2035 21.3838 22.4915C21.1177 22.7332 20.7784 22.879 20.4198 22.9055C20.3068 22.9055 20.1948 22.8885 20.0718 22.8505V22.8445C19.6508 22.7205 18.9498 22.4235 17.7948 21.7945C16.7844 21.2357 15.8495 20.5501 15.0128 19.7545L14.9848 19.7305L14.9618 19.7035L14.9238 19.6755L14.8998 19.6415C14.1066 18.8077 13.4243 17.875 12.8698 16.8665C12.4398 16.1485 12.0878 15.3855 11.8178 14.5925L11.7998 14.5825C11.7528 14.4295 11.7388 14.2675 11.7588 14.1075C11.7928 13.8375 11.9228 13.5575 12.1628 13.2805C12.4508 12.9545 12.7888 12.6775 13.1638 12.4575H13.1778ZM17.9763 11.2959C18.07 11.2022 18.1972 11.1495 18.3298 11.1495C19.8358 11.1495 21.1398 11.6515 22.1708 12.6365L22.1808 12.6465C22.7048 13.1756 23.1145 13.8066 23.3848 14.5005C23.6539 15.1911 23.7768 15.93 23.7458 16.6705C23.7402 16.8031 23.6822 16.928 23.5845 17.0179C23.4868 17.1077 23.3574 17.155 23.2248 17.1495C23.0922 17.1439 22.9672 17.0859 22.8774 16.9882C22.7876 16.8905 22.7402 16.7611 22.7458 16.6285C22.7718 16.0265 22.6718 15.4255 22.4528 14.8625C22.2348 14.3005 21.9018 13.7875 21.4748 13.3545C20.6438 12.5625 19.5938 12.1495 18.3298 12.1495C18.1972 12.1495 18.07 12.0968 17.9763 12.003C17.8825 11.9093 17.8298 11.7821 17.8298 11.6495C17.8298 11.5169 17.8825 11.3897 17.9763 11.2959ZM17.9413 12.9399C18.035 12.8462 18.1622 12.7935 18.2948 12.7935L18.3448 12.7925L18.3618 12.7945C19.4798 12.8695 20.4088 13.2535 21.0858 13.9795V13.9815C21.7478 14.6955 22.0818 15.5905 22.0578 16.6275C22.0548 16.7601 21.9992 16.886 21.9032 16.9777C21.8073 17.0693 21.6789 17.119 21.5463 17.116C21.4137 17.1129 21.2877 17.0573 21.1961 16.9614C21.1045 16.8655 21.0548 16.7371 21.0578 16.6045C21.0768 15.8145 20.8298 15.1755 20.3528 14.6615C19.8878 14.1625 19.2238 13.8585 18.3118 13.7935H18.2948C18.1622 13.7935 18.035 13.7408 17.9413 13.647C17.8475 13.5533 17.7948 13.4261 17.7948 13.2935C17.7948 13.1609 17.8475 13.0337 17.9413 12.9399ZM18.2758 14.4685C18.2089 14.4626 18.1415 14.4702 18.0776 14.4909C18.0137 14.5117 17.9546 14.5451 17.9039 14.5891C17.8532 14.6332 17.8119 14.687 17.7825 14.7474C17.753 14.8077 17.736 14.8734 17.7325 14.9405C17.729 15.0076 17.7391 15.0747 17.7621 15.1378C17.7851 15.2009 17.8206 15.2587 17.8665 15.3078C17.9123 15.3569 17.9676 15.3963 18.029 15.4235C18.0904 15.4508 18.1566 15.4654 18.2238 15.4665C18.6418 15.4885 18.9088 15.6145 19.0768 15.7835C19.2458 15.9535 19.3718 16.2265 19.3948 16.6535C19.3961 16.7206 19.4108 16.7867 19.4382 16.848C19.4655 16.9093 19.5049 16.9644 19.5541 17.0102C19.6032 17.0559 19.661 17.0913 19.7241 17.1142C19.7872 17.1371 19.8542 17.147 19.9212 17.1435C19.9883 17.1399 20.0539 17.1229 20.1142 17.0934C20.1745 17.064 20.2282 17.0227 20.2722 16.972C20.3162 16.9214 20.3496 16.8623 20.3703 16.7985C20.391 16.7347 20.3987 16.6673 20.3928 16.6005C20.3608 16.0005 20.1728 15.4705 19.7878 15.0805C19.4008 14.6905 18.8738 14.5005 18.2758 14.4685Z" fill="white"/>
</svg>
