<svg width="32" height="32" viewBox="0 0 32 32" fill="none" xmlns="http://www.w3.org/2000/svg">
<path d="M30.4594 21.5135L22.9218 18.1359L22.901 18.1263C22.5097 17.9589 22.0828 17.8917 21.659 17.9308C21.2352 17.9699 20.8278 18.1141 20.4738 18.3503C20.4321 18.3778 20.392 18.4077 20.3538 18.4399L16.4593 21.7599C13.9921 20.5615 11.4449 18.0335 10.2465 15.5982L13.5713 11.6446C13.6033 11.6046 13.6337 11.5646 13.6625 11.5214C13.8936 11.1683 14.0338 10.7635 14.0707 10.3431C14.1075 9.92269 14.0398 9.4997 13.8737 9.11176V9.09256L10.4865 1.54209C10.2669 1.03531 9.88924 0.613146 9.40998 0.338621C8.93072 0.0640959 8.37552 -0.0480668 7.82727 0.0188764C5.65921 0.30417 3.66913 1.36892 2.22872 3.01426C0.788319 4.6596 -0.00390552 6.77301 1.44779e-05 8.95976C1.44779e-05 21.6639 10.3361 32 23.0402 32C25.2269 32.0039 27.3403 31.2117 28.9857 29.7713C30.631 28.3309 31.6957 26.3408 31.981 24.1727C32.0481 23.6246 31.9362 23.0696 31.662 22.5903C31.3877 22.1111 30.9659 21.7334 30.4594 21.5135Z" fill="white"/>
</svg>
