<svg width="24" height="24" viewBox="0 0 24 24" fill="none" xmlns="http://www.w3.org/2000/svg">
<path d="M12 0C8.8174 0 5.76515 1.26428 3.51472 3.51472C1.26428 5.76515 0 8.8174 0 12C0 15.1826 1.26428 18.2348 3.51472 20.4853C5.76515 22.7357 8.8174 24 12 24C15.1826 24 18.2348 22.7357 20.4853 20.4853C22.7357 18.2348 24 15.1826 24 12C24 8.8174 22.7357 5.76515 20.4853 3.51472C18.2348 1.26428 15.1826 0 12 0ZM20.65 7H17.43C16.709 5.33041 15.76 3.76887 14.61 2.36C17.15 3.05 19.32 4.72 20.65 7ZM16.5 12C16.5 13.02 16.33 14.03 16.02 15H7.98C7.67 14.03 7.51 13.02 7.5 12C7.5 10.98 7.67 9.97 7.98 9H16.02C16.33 9.97 16.49 10.98 16.5 12ZM8.78 17H15.22C14.3719 18.6763 13.2875 20.222 12 21.59C10.7119 20.2225 9.62746 18.6766 8.78 17ZM8.78 7C9.62806 5.32374 10.7125 3.77796 12 2.41C13.2881 3.77752 14.3725 5.32338 15.22 7H8.78ZM9.4 2.36C8.24661 3.76834 7.2942 5.32989 6.57 7H3.35C4.67727 4.71725 6.85118 3.04999 9.4 2.36ZM2.46 9H5.9C5.64 9.98 5.5 10.99 5.5 12C5.5 13.01 5.64 14.02 5.9 15H2.46C1.84586 13.0471 1.84586 10.9529 2.46 9ZM6.57 17C7.2942 18.6701 8.24661 20.2317 9.4 21.64C6.85118 20.95 4.67727 19.2827 3.35 17H6.57ZM14.61 21.64C15.76 20.2311 16.709 18.6696 17.43 17H20.65C19.3251 19.2807 17.1551 20.9477 14.61 21.64ZM21.54 15H18.1C18.36 14.02 18.5 13.01 18.5 12C18.5 10.99 18.36 9.98 18.1 9H21.54C22.1541 10.9529 22.1541 13.0471 21.54 15Z" fill="white"/>
</svg>
