<svg width="7" height="13" viewBox="0 0 7 13" fill="none" xmlns="http://www.w3.org/2000/svg">
<path d="M1.3871 0.257257L6.82257 6.01979C6.88709 6.08839 6.93289 6.16271 6.95999 6.24274C6.98709 6.32278 7.00042 6.40853 6.99999 6.5C6.99999 6.59147 6.98644 6.67722 6.95935 6.75726C6.93225 6.83729 6.88666 6.91161 6.82257 6.98021L1.38709 12.7599C1.23656 12.92 1.04838 13 0.822578 13C0.596772 13 0.403224 12.9142 0.241934 12.7427C0.0806442 12.5712 -8.98699e-07 12.3712 -8.78708e-07 12.1425C-8.58716e-07 11.9138 0.0806442 11.7137 0.241934 11.5422L4.98386 6.5L0.241935 1.45778C0.0913978 1.29771 0.0161291 1.10037 0.0161291 0.865754C0.0161291 0.631136 0.0967742 0.428303 0.258064 0.257257C0.419354 0.0857529 0.607526 1.3485e-06 0.82258 1.3673e-06C1.03763 1.3861e-06 1.2258 0.0857529 1.3871 0.257257Z" fill="white"/>
</svg>
