<svg width="14" height="25" viewBox="0 0 14 25" fill="none" xmlns="http://www.w3.org/2000/svg">
<path d="M12.5772 4.83224L12.5772 17.8289C12.5772 19.421 11.9447 20.948 10.8189 22.0739C9.69302 23.1997 8.16605 23.8322 6.57387 23.8322C4.98168 23.8322 3.45471 23.1997 2.32887 22.0739C1.20302 20.948 0.570531 19.421 0.570531 17.8289L0.570531 4.83224C0.570531 3.77078 0.992192 2.7528 1.74276 2.00224C2.49332 1.25168 3.5113 0.830015 4.57276 0.830015C5.63421 0.830015 6.65219 1.25168 7.40276 2.00224C8.15332 2.7528 8.57498 3.77078 8.57498 4.83224L8.56791 17.8359C8.56791 18.3667 8.35708 18.8757 7.9818 19.2509C7.60652 19.6262 7.09752 19.837 6.5668 19.837C6.03607 19.837 5.52708 19.6262 5.1518 19.2509C4.77651 18.8757 4.56568 18.3667 4.56568 17.8359L4.57275 5.83633" stroke="white" stroke-linecap="round" stroke-linejoin="round"/>
</svg>
