<svg width="120" height="52" viewBox="0 0 120 52" fill="none" xmlns="http://www.w3.org/2000/svg">
<path d="M89.5077 0.464569C88.5774 0.464569 87.7316 0.949841 87.2812 1.76382C83.8149 8.02759 68.733 35.2675 62.3507 46.5584C61.2165 48.5648 62.5633 51.045 64.868 51.0207L69.976 50.9316L71.3421 48.4964L72.7082 46.0315H85.0328H89.3422C94.1423 46.0315 98.4174 42.9962 100 38.4646H77C80.1777 32.9705 89.6359 16.9574 89.6953 17.0465C89.7844 17.1059 92.3978 21.62 95.5458 27.0843L101.277 36.9737L109.326 50.9316L114.434 51.0207C116.753 51.0454 118.096 48.5689 116.958 46.548C110.937 35.8557 95.5585 8.54934 91.7279 1.75491C91.2751 0.951702 90.4298 0.464569 89.5077 0.464569Z" fill="white"/>
<path d="M8.7738e-05 4.47379V8.48298H7.12746C21.0557 8.48298 24.6491 8.57208 24.5304 8.83936C24.4413 9.04725 18.8878 18.699 12.2058 30.3108L0 51.3963L4.92983 51.4854C8.34792 51.5225 11.2069 49.982 12.9112 47.0188C15.5254 42.4734 19.713 34.7753 24.7679 26.0047C32.7269 12.1952 39.2901 0.820957 39.3792 0.67247C39.4386 0.55368 28.2723 0.464588 14.5519 0.464588H4.00929C1.79507 0.464588 8.7738e-05 2.25957 8.7738e-05 4.47379Z" fill="white"/>
<path d="M66.145 9.1172C55.7805 27.0844 54.949 28.5098 54.7411 28.5098C54.6223 28.5098 51.9495 24.0255 48.7718 18.5314C45.6239 13.067 42.8917 8.37476 42.7432 8.13718C42.4759 7.8402 41.8819 8.67174 39.9516 12.0276C38.2479 14.9535 38.4469 18.0353 40.1357 20.9698C41.1494 22.7314 42.3928 24.8899 43.7232 27.2031L49.7222 37.6271L45.8615 44.2794L42.0007 50.9317L46.9306 51.0208C50.3728 51.0582 53.2542 49.5768 54.9734 46.5944C57.5634 42.1013 61.6094 34.4919 66.7687 25.5401C74.7277 11.7306 81.38 0.20787 81.38 0.20787C81.38 0.20787 79.2417 -1.14441e-05 76.4501 -1.14441e-05C73.3435 -1.14441e-05 70.472 1.65435 68.9138 4.34188L66.145 9.1172Z" fill="white"/>
</svg>
